<svg width="24" height="27" viewBox="0 0 24 27" fill="none" xmlns="http://www.w3.org/2000/svg">
<path d="M22.8775 1.79736H1.76465V21.6402H22.8775V1.79736Z" stroke="#EF7F1A" stroke-width="2" stroke-miterlimit="22.9256" stroke-linecap="round" stroke-linejoin="round"/>
<path d="M13.6502 21.083V11.6272H12.0195V10.1914H13.6502V9.03253C13.6502 8.30095 13.7151 7.7574 13.845 7.40187C14.0228 6.92327 14.3339 6.53697 14.7783 6.24297C15.2295 5.94213 15.8586 5.79172 16.6653 5.79172C17.185 5.79172 17.7593 5.85325 18.3883 5.97632L18.1114 7.58647C17.7285 7.5181 17.3662 7.48391 17.0243 7.48391C16.4637 7.48391 16.0671 7.60356 15.8346 7.84286C15.6022 8.08216 15.4859 8.53 15.4859 9.18636V10.1914H17.6089V11.6272H15.4859V21.083H13.6502Z" fill="#EF7F1A"/>
</svg>
