<svg width="25" height="27" viewBox="0 0 25 27" fill="none" xmlns="http://www.w3.org/2000/svg">
<path fill-rule="evenodd" clip-rule="evenodd" d="M4.6875 0.205078C4.6875 0.205078 3.90625 0.205078 3.90625 0.986328C3.125 0.986328 3.125 1.76758 2.34375 1.76758C2.34375 2.54883 2.34375 2.54883 1.5625 2.54883V4.11133C0.78125 4.11133 0.78125 4.11133 0.78125 4.11133C0.78125 4.11133 0.78125 4.11133 0.78125 4.89258V5.67383C0 5.67383 0 5.67383 0 6.45508V7.23633C0 8.01758 0 8.01758 0 8.01758C0 8.01758 0 8.01758 0 8.79883V9.58008C0 10.3613 0 10.3613 0 10.3613L0.78125 11.1426C0.78125 11.9238 0.78125 11.9238 0.78125 11.9238V12.7051L1.5625 13.4863C1.5625 14.2676 1.5625 14.2676 1.5625 14.2676C1.5625 14.2676 1.5625 14.2676 1.5625 15.0488H2.34375V15.8301C2.34375 15.8301 2.34375 15.8301 3.125 15.8301V16.6113L3.90625 17.3926C3.90625 17.3926 3.90625 17.3926 3.90625 18.1738C4.6875 18.1738 3.90625 18.1738 3.90625 18.1738C4.6875 18.1738 4.6875 18.9551 5.46875 18.9551L6.25 20.5176L7.03125 21.2988C7.8125 22.0801 7.8125 21.2988 7.8125 22.0801C7.8125 22.0801 8.59375 22.0801 8.59375 22.8613L10.1562 23.6426C10.1562 23.6426 10.1562 23.6426 10.1562 24.4238C10.1562 24.4238 10.1562 24.4238 10.9375 24.4238C11.7188 24.4238 10.9375 24.4238 11.7188 24.4238L12.5 25.2051C13.2812 25.2051 13.2812 25.9863 13.2812 25.9863H14.0625C14.8438 25.9863 14.8438 25.9863 14.8438 25.9863C14.8438 25.9863 14.8438 25.9863 15.625 25.9863L16.4062 26.7676H17.9688L19.5312 25.9863H20.3125C20.3125 25.9863 20.3125 25.9863 21.0938 25.2051C21.875 25.2051 21.875 25.2051 21.875 25.2051L22.6562 24.4238C22.6562 23.6426 22.6562 23.6426 23.4375 23.6426L24.2188 22.8613C24.2188 22.8613 24.2188 22.8613 24.2188 22.0801V21.2988C24.2188 20.5176 24.2188 20.5176 24.2188 20.5176C23.4375 20.5176 23.4375 20.5176 23.4375 20.5176C23.4375 19.7363 23.4375 20.5176 23.4375 19.7363C22.6562 19.7363 22.6562 19.7363 22.6562 19.7363C22.6562 18.9551 22.6562 18.9551 22.6562 18.9551C22.6562 18.9551 22.6562 18.9551 21.875 18.9551L20.3125 17.3926H19.5312L18.75 16.6113L17.9688 17.3926H17.1875C17.1875 17.3926 17.1875 17.3926 16.4062 18.1738H15.625C15.625 18.9551 14.8438 18.9551 14.8438 19.7363H14.0625H13.2812C13.2812 19.7363 12.5 19.7363 12.5 18.9551C12.5 18.9551 12.5 18.9551 11.7188 18.9551L10.1562 17.3926C10.1562 16.6113 8.59375 15.8301 8.59375 15.0488C7.8125 15.0488 8.59375 15.0488 7.8125 15.0488C7.8125 15.0488 7.8125 15.0488 7.8125 14.2676L7.03125 13.4863V12.7051C6.25 11.9238 6.25 11.1426 6.25 11.1426C6.25 10.3613 7.03125 10.3613 7.03125 9.58008C7.03125 9.58008 7.03125 9.58008 7.8125 9.58008L8.59375 8.79883C8.59375 8.01758 8.59375 8.01758 8.59375 8.01758C9.375 7.23633 10.1562 7.23633 9.375 6.45508V5.67383V4.89258V4.11133L8.59375 3.33008L7.8125 2.54883C7.8125 1.76758 7.8125 1.76758 7.8125 1.76758H7.03125V0.986328C7.03125 0.986328 6.25 0.986328 6.25 0.205078H5.46875H4.6875V0.205078ZM12.5 9.58008H13.2812C13.2812 9.58008 14.0625 10.3613 14.8438 10.3613H15.625C15.625 11.1426 16.4062 11.1426 16.4062 11.1426V11.9238C16.4062 11.9238 17.1875 11.9238 17.1875 12.7051V13.4863C17.1875 13.4863 17.1875 13.4863 17.1875 14.2676L17.9688 15.0488H20.3125V14.2676L19.5312 13.4863V12.7051V11.9238C19.5312 11.9238 19.5312 11.9238 19.5312 11.1426H18.75V10.3613H17.9688C17.9688 9.58008 17.9688 10.3613 17.9688 9.58008C17.1875 9.58008 17.1875 9.58008 17.1875 8.79883C16.4062 8.79883 16.4062 8.79883 16.4062 8.79883C16.4062 8.01758 14.8438 8.01758 14.8438 8.01758H14.0625L13.2812 7.23633H12.5V9.58008ZM12.5 4.89258H13.2812H14.0625C14.0625 4.89258 14.0625 4.89258 14.0625 5.67383H14.8438C15.625 5.67383 15.625 5.67383 16.4062 5.67383C16.4062 5.67383 17.1875 6.45508 17.9688 6.45508L18.75 7.23633C19.5312 7.23633 18.75 7.23633 19.5312 7.23633C19.5312 8.01758 19.5312 8.01758 19.5312 8.01758C20.3125 8.01758 20.3125 8.01758 20.3125 8.79883L21.0938 9.58008L21.875 11.1426C21.875 11.9238 21.875 11.9238 21.875 12.7051L22.6562 13.4863V15.0488H23.4375C24.2188 14.2676 24.2188 15.0488 25 15.0488V14.2676V13.4863L24.2188 12.7051V11.9238V11.1426V10.3613L23.4375 9.58008C23.4375 9.58008 23.4375 9.58008 23.4375 8.79883C22.6562 8.79883 22.6562 8.01758 22.6562 8.01758C22.6562 8.01758 22.6562 8.01758 22.6562 7.23633C22.6562 7.23633 22.6562 7.23633 21.875 7.23633C21.875 6.45508 21.875 6.45508 21.875 6.45508C21.875 6.45508 21.875 6.45508 21.0938 6.45508C21.0938 6.45508 21.0938 6.45508 21.0938 5.67383C20.3125 5.67383 20.3125 5.67383 20.3125 5.67383C20.3125 4.89258 20.3125 4.89258 20.3125 4.89258H19.5312C19.5312 4.89258 18.75 4.89258 18.75 4.11133H17.9688C17.9688 4.11133 17.9688 4.11133 17.1875 4.11133C17.1875 3.33008 17.1875 3.33008 17.1875 3.33008H16.4062H15.625H14.8438V2.54883H14.0625C13.2813 2.54883 13.2812 2.54883 13.2812 2.54883H12.5V4.89258Z" fill="#EF7F1A"/>
</svg>
