<svg width="24" height="23" viewBox="0 0 24 23" fill="none" xmlns="http://www.w3.org/2000/svg">
<path d="M22.7478 1.79736H1.63501V21.6402H22.7478V1.79736Z" stroke="#EF7F1A" stroke-width="2" stroke-miterlimit="22.9256" stroke-linecap="round" stroke-linejoin="round"/>
<path d="M8.59737 15.3848V6.29425H12.0079C12.7024 6.29425 13.2584 6.38726 13.6759 6.57329C14.0976 6.75518 14.4262 7.03836 14.6618 7.42281C14.9016 7.80314 15.0215 8.20206 15.0215 8.61959C15.0215 9.00818 14.9161 9.37403 14.7053 9.71715C14.4944 10.0603 14.1761 10.3372 13.7503 10.5481C14.3001 10.7093 14.7218 10.9842 15.0153 11.3728C15.3129 11.7614 15.4618 12.2202 15.4618 12.7494C15.4618 13.1752 15.3708 13.572 15.1889 13.94C15.0112 14.3037 14.79 14.5848 14.5254 14.7833C14.2609 14.9817 13.9281 15.1326 13.5271 15.2359C13.1302 15.3352 12.6424 15.3848 12.0637 15.3848H8.59737ZM9.80034 10.114H11.766C12.2993 10.114 12.6817 10.0789 12.9132 10.0086C13.2191 9.91764 13.4485 9.76675 13.6015 9.55592C13.7586 9.34509 13.8371 9.08052 13.8371 8.76221C13.8371 8.46043 13.7648 8.19586 13.6201 7.96849C13.4754 7.73699 13.2687 7.5799 13 7.49723C12.7313 7.41041 12.2704 7.36701 11.6172 7.36701H9.80034V10.114ZM9.80034 14.312H12.0637C12.4523 14.312 12.7251 14.2975 12.8822 14.2686C13.1592 14.219 13.3907 14.1363 13.5767 14.0206C13.7627 13.9048 13.9157 13.7374 14.0356 13.5183C14.1554 13.2951 14.2154 13.0388 14.2154 12.7494C14.2154 12.4104 14.1286 12.1169 13.9549 11.8689C13.7813 11.6167 13.5395 11.441 13.2294 11.3418C12.9235 11.2384 12.4812 11.1868 11.9024 11.1868H9.80034V14.312Z" fill="#EF7F1A"/>
</svg>
