<svg width="22" height="23" viewBox="0 0 22 23" fill="none" xmlns="http://www.w3.org/2000/svg">
<path fill-rule="evenodd" clip-rule="evenodd" d="M22 11.0801V20.6134C22 21.3467 21.2667 22.0801 20.5333 22.0801H2.2C0.733333 22.0801 0 21.3467 0 20.6134V11.0801L11 16.2134L22 11.0801Z" fill="#EF7F1A"/>
<path fill-rule="evenodd" clip-rule="evenodd" d="M2.2 10.3467H3.66667V6.68008C3.66667 5.94674 4.4 5.21341 5.13333 5.21341H17.6C18.3333 5.21341 19.0667 5.94674 19.0667 6.68008V10.3467H20.5333C21.2667 10.3467 22 9.61341 22 8.88008V5.21341L11 0.0800781L0 5.21341V8.88008C0 9.61341 0.733333 10.3467 2.2 10.3467Z" fill="#EF7F1A"/>
</svg>
