<svg width="24" height="23" viewBox="0 0 24 23" fill="none" xmlns="http://www.w3.org/2000/svg">
<path d="M22.9597 1.79736H1.84692V21.6402H22.9597V1.79736Z" stroke="#EF7F1A" stroke-width="2" stroke-miterlimit="22.9256" stroke-linecap="round" stroke-linejoin="round"/>
<path d="M12.4827 15.9256C14.8498 15.9256 16.7687 14.0067 16.7687 11.6396C16.7687 9.27245 14.8498 7.35352 12.4827 7.35352C10.1156 7.35352 8.19662 9.27245 8.19662 11.6396C8.19662 14.0067 10.1156 15.9256 12.4827 15.9256Z" stroke="#EF7F1A" stroke-width="2" stroke-miterlimit="22.9256" stroke-linecap="round" stroke-linejoin="round"/>
<path d="M19.6261 6.40091C20.0645 6.40091 20.4198 6.04555 20.4198 5.60719C20.4198 5.16883 20.0645 4.81348 19.6261 4.81348C19.1878 4.81348 18.8324 5.16883 18.8324 5.60719C18.8324 6.04555 19.1878 6.40091 19.6261 6.40091Z" stroke="#EF7F1A" stroke-width="2" stroke-miterlimit="22.9256" stroke-linecap="round" stroke-linejoin="round"/>
</svg>
