<svg width="100" height="96" viewBox="0 0 100 96" fill="none" xmlns="http://www.w3.org/2000/svg">
<path fill-rule="evenodd" clip-rule="evenodd" d="M1.08691 1.42822H94.8996L98.913 4.93993H5.10029V81.6958L1.08691 78.0169V1.42822V1.42822ZM80.8528 78.0169H76.8394V75.3413L79.515 76.5118L80.8528 74.1707V78.0169V78.0169Z" stroke="#EF7F1A" stroke-width="2.17391" stroke-miterlimit="22.9256" stroke-linecap="round" stroke-linejoin="round"/>
<path fill-rule="evenodd" clip-rule="evenodd" d="M5.10028 4.93994H98.913V81.6958H80.8528V74.1707L79.515 76.5118L75.8361 74.8396L72.826 77.6824L69.9832 75.0068L66.3043 76.3446V81.6958H5.10028V4.93994Z" stroke="#EF7F1A" stroke-width="2.17391" stroke-miterlimit="22.9256" stroke-linecap="round" stroke-linejoin="round"/>
<path fill-rule="evenodd" clip-rule="evenodd" d="M14.6321 13.6356H89.214V48.0837L86.0368 46.9132L85.3679 43.067H81.3545L79.515 39.5553L75.6689 41.0603L72.8261 38.3847L69.816 41.0603L66.1371 39.5553L64.1304 43.2342L60.2843 43.067L59.6154 47.0804L55.9364 48.2509L56.6053 52.2643L53.5953 54.6055L55.602 58.1172L53.5953 61.4616L56.7725 63.97L55.9364 67.8162L59.7826 69.154L60.2843 73.0001H14.6321V13.6356V13.6356ZM89.214 50.7593V52.2643L89.0468 52.0971L89.214 50.7593ZM89.214 63.6356V64.9734L89.0468 63.8028L89.214 63.6356V63.6356ZM89.214 67.9834V73.0001H85.3679L86.0368 68.9867L89.214 67.9834ZM85.0334 73.0001H81.3545L81.5217 72.8329L85.0334 73.0001ZM64.2976 73.0001H61.1204H64.2976Z" stroke="#EF7F1A" stroke-width="1.17057" stroke-miterlimit="22.9256" stroke-linecap="round" stroke-linejoin="round"/>
<path fill-rule="evenodd" clip-rule="evenodd" d="M72.826 43.9031L75 45.7426L77.6755 44.7393L79.0133 47.2476H81.8561L82.3578 49.9232L85.0334 50.9265L84.5317 53.7694L86.7056 55.6088L85.2006 57.95L86.7056 60.4583L84.5317 62.1306L85.0334 65.1406L82.3578 65.9767L81.8561 68.8195L79.0133 68.6523L77.6755 71.3279L75 70.1573L72.826 72.164L70.8193 70.1573L67.9765 71.3279L66.6388 68.8195H63.7959L63.4615 65.9767L60.6187 65.1406L61.2876 62.2978L58.9464 60.4583L60.4515 58.1172L58.9464 55.6088L61.1204 53.7694L60.6187 50.9265L63.2943 50.0904L63.7959 47.2476H66.6388L67.9765 44.7393L70.6521 45.9098L72.826 43.9031Z" stroke="#EF7F1A" stroke-width="1.17057" stroke-miterlimit="22.9256" stroke-linecap="round" stroke-linejoin="round"/>
<path fill-rule="evenodd" clip-rule="evenodd" d="M66.3043 94.572V76.3446L69.9833 75.0068L72.8261 77.6824L75.8361 74.8396L79.515 76.5119L80.8528 74.1707V94.572L73.495 91.3948L66.3043 94.572Z" stroke="#EF7F1A" stroke-width="2.17391" stroke-miterlimit="22.9256" stroke-linecap="round" stroke-linejoin="round"/>
<path fill-rule="evenodd" clip-rule="evenodd" d="M72.826 38.3848L75.6689 41.0604L79.515 39.5553L81.3545 43.067H85.3679L86.0367 46.9132L89.8829 48.251L89.0468 52.0971L92.224 54.6055L90.0501 57.95L92.224 61.4617L89.0468 63.8028L89.8829 67.8162L86.0367 68.9868L85.3679 73.0001L81.5217 72.8329L79.515 76.5119L75.8361 74.8396L72.826 77.6824L69.9832 75.0068L66.1371 76.5119L64.2976 73.0001H60.2842L59.7826 69.154L55.9364 67.8162L56.7725 63.97L53.5953 61.4617L55.602 58.1172L53.5953 54.6055L56.6053 52.2644L55.9364 48.251L59.6153 47.0804L60.2842 43.067L64.1304 43.2343L66.1371 39.5553L69.816 41.0604L72.826 38.3848Z" stroke="#EF7F1A" stroke-width="2.17391" stroke-miterlimit="22.9256" stroke-linecap="round" stroke-linejoin="round"/>
<path d="M38.7123 23.0001H22.1572V32.1974H38.7123V23.0001Z" stroke="#EF7F1A" stroke-width="2.17391" stroke-miterlimit="22.9256" stroke-linecap="round" stroke-linejoin="round"/>
<path d="M21.9899 41.7292H54.0969" stroke="#EF7F1A" stroke-width="2.17391" stroke-miterlimit="22.9256" stroke-linecap="round" stroke-linejoin="round"/>
<path d="M21.9899 47.5821H40.719" stroke="#EF7F1A" stroke-width="2.17391" stroke-miterlimit="22.9256" stroke-linecap="round" stroke-linejoin="round"/>
<path d="M21.9899 53.6021H48.0769" stroke="#EF7F1A" stroke-width="2.17391" stroke-miterlimit="22.9256" stroke-linecap="round" stroke-linejoin="round"/>
<path d="M21.9899 59.455H40.719" stroke="#EF7F1A" stroke-width="2.17391" stroke-miterlimit="22.9256" stroke-linecap="round" stroke-linejoin="round"/>
<path d="M80.3511 55.7761H76.1705V63.97H80.3511V55.7761Z" stroke="#EF7F1A" stroke-width="1.17057" stroke-miterlimit="22.9256" stroke-linecap="round" stroke-linejoin="round"/>
<path d="M76.1705 56.6122C75.1672 55.9433 74.3311 55.1072 73.6622 54.4383C73.1605 53.9366 72.826 53.4349 72.6588 52.9333C72.4916 52.2644 72.3244 51.7627 72.1571 51.261C72.1571 50.7594 72.1571 50.4249 71.9899 50.0905C71.9899 49.756 71.8227 49.5888 71.6555 49.5888C71.4882 49.4216 71.1538 49.5888 70.9866 49.5888C70.6521 49.5888 70.4849 49.756 70.3177 49.9232C70.1505 50.2577 69.9832 50.7594 69.9832 51.261C69.816 51.9299 69.816 52.5988 69.9832 53.2677C69.9832 53.9366 70.1505 54.6055 70.3177 54.94C70.4849 55.4416 70.6521 55.6089 70.6521 55.6089C70.8194 55.7761 70.6521 55.7761 69.816 55.7761C68.8127 55.7761 67.3076 55.7761 66.3043 55.7761C65.4682 55.7761 65.301 55.9433 65.301 56.1105C65.1337 56.2777 64.9665 56.445 64.7993 56.7794C64.7993 56.9466 64.7993 57.2811 64.9665 57.4483C64.9665 57.7828 65.301 57.95 65.4682 58.1172C65.4682 58.2844 65.4682 58.2844 65.4682 58.2844C65.301 58.4517 65.301 58.6189 65.301 58.7861C65.1337 58.9533 65.1337 59.2878 65.301 59.455C65.4682 59.6222 65.6354 59.9567 65.8026 59.9567C65.9699 60.1239 65.9699 60.1239 65.9699 60.2911C66.1371 60.2911 65.9699 60.2911 65.9699 60.4583C65.8026 60.6256 65.8026 60.7928 65.8026 61.1272C65.8026 61.4617 65.8026 61.6289 66.1371 61.9634C66.3043 62.1306 66.6387 62.2978 66.806 62.2978C66.9732 62.465 66.806 62.465 66.806 62.6323C66.806 62.6323 66.6387 62.7995 66.6387 62.9667C66.806 63.1339 66.806 63.4684 66.9732 63.6356C67.3076 63.9701 67.4749 64.1373 68.6454 64.1373C69.6488 64.1373 71.6555 64.1373 72.9933 63.9701C74.4983 63.6356 75.3344 63.3012 76.1705 62.7995" stroke="#EF7F1A" stroke-width="1.17057" stroke-miterlimit="22.9256" stroke-linecap="round" stroke-linejoin="round"/>
</svg>
