<svg width="96" height="98" viewBox="0 0 96 98" fill="none" xmlns="http://www.w3.org/2000/svg">
<path d="M6.59501 13.9985H76.1123C76.6798 13.9985 77.2 14.4714 77.2 15.0862V89.238C77.2 89.8528 76.6798 90.3257 76.1123 90.3257H6.59501C5.98023 90.3257 5.50732 89.8528 5.50732 89.238V77.4154H7.63541V88.1976H75.0247V16.1739H7.63541V77.4154H5.50732V15.0862C5.50732 14.4714 5.98023 13.9985 6.59501 13.9985Z" fill="#EF7F1A"/>
<path d="M10.662 18.9167H71.9981C72.2818 18.9167 72.5183 19.1532 72.5183 19.4369V84.8873C72.5183 85.171 72.2818 85.4075 71.9981 85.4075H10.662C10.3783 85.4075 10.1418 85.171 10.1418 84.8873V19.4369C10.1418 19.1532 10.3783 18.9167 10.662 18.9167ZM71.4779 20.0044H11.2295V76.5168V76.8951V77.9355V78.9286V84.3198H71.4779V20.0044ZM13.1212 76.8951V76.5168V22.6527C13.1212 22.369 13.3576 22.1325 13.6886 22.1325H36.6719C36.9557 22.1325 37.1921 22.369 37.1921 22.6527V81.6715C37.1921 82.0025 36.9557 82.239 36.6719 82.239H13.6886C13.3576 82.239 13.1212 82.0025 13.1212 81.6715V78.9286V77.9355V76.8951ZM14.2088 77.4154V81.1513H36.1517V23.1729H14.2088V77.4154Z" fill="#EF7F1A"/>
<path fill-rule="evenodd" clip-rule="evenodd" d="M13.6886 22.6528H36.6719V81.6716H13.6886V77.4154V55.0942V22.6528Z" stroke="#EF7F1A" stroke-width="1.25502" stroke-miterlimit="22.9256" stroke-linecap="round" stroke-linejoin="round"/>
<path fill-rule="evenodd" clip-rule="evenodd" d="M39.0837 20.9503H70.5321V83.4213H39.0837V20.9503ZM41.9685 23.7877H67.6473V80.5365H41.9685V51.8784H41.1172C40.5025 51.8784 40.0296 51.4055 40.0296 50.838C40.0296 50.2705 40.5025 49.7976 41.1172 49.7976H41.9685V23.7877V23.7877Z" stroke="#EF7F1A" stroke-width="1.25502" stroke-miterlimit="22.9256" stroke-linecap="round" stroke-linejoin="round"/>
<path d="M79.2808 89.6163H2.00784V96.6626H79.2808V89.6163Z" stroke="#EF7F1A" stroke-width="2.45984" stroke-miterlimit="22.9256" stroke-linecap="round" stroke-linejoin="round"/>
<path d="M45.3734 49.7976H40.4552C39.8806 49.7976 39.4148 50.2634 39.4148 50.838V50.8853C39.4148 51.4599 39.8806 51.9257 40.4552 51.9257H45.3734C45.948 51.9257 46.4138 51.4599 46.4138 50.8853V50.838C46.4138 50.2634 45.948 49.7976 45.3734 49.7976Z" stroke="#EF7F1A" stroke-width="1.25502" stroke-miterlimit="22.9256" stroke-linecap="round" stroke-linejoin="round"/>
<path d="M13.8778 7.04681H83.3951C84.0099 7.04681 84.4828 7.56701 84.4828 8.1345V82.3336C84.4828 82.9011 84.0099 83.374 83.3951 83.374H76.2542V81.2459H82.3547V9.22219H14.9655V15.0862H12.8374V8.1345C12.8374 7.56701 13.3103 7.04681 13.8778 7.04681Z" fill="#EF7F1A"/>
<path fill-rule="evenodd" clip-rule="evenodd" d="M76.2542 82.7119H86.5636V89.7582H76.2542V82.7119Z" stroke="#EF7F1A" stroke-width="2.45984" stroke-miterlimit="22.9256" stroke-linecap="round" stroke-linejoin="round"/>
<path d="M21.2079 0.000488281H90.7252C91.2927 0.000488281 91.7656 0.473395 91.7656 1.08817V75.24C91.7656 75.8548 91.2927 76.3277 90.7252 76.3277H83.537V74.1996H89.6375V2.17586H22.2483V7.99262H20.1202V1.08817C20.1202 0.473395 20.5931 0.000488281 21.2079 0.000488281V0.000488281Z" fill="#EF7F1A"/>
<path fill-rule="evenodd" clip-rule="evenodd" d="M83.537 75.6183H93.8937V82.7119H83.537V75.6183Z" stroke="#EF7F1A" stroke-width="2.45984" stroke-miterlimit="22.9256" stroke-linecap="round" stroke-linejoin="round"/>
</svg>
