<svg width="100" height="78" viewBox="0 0 100 78" fill="none" xmlns="http://www.w3.org/2000/svg">
<path fill-rule="evenodd" clip-rule="evenodd" d="M79.4037 3.92993C83.3631 3.92993 86.489 7.15997 86.489 11.0152V14.9746C86.489 17.6837 84.9261 20.0801 82.6338 21.2263C81.696 21.7473 80.5499 22.0598 79.4037 22.0598C78.1534 22.0598 76.9031 21.6431 75.8611 21.0179C75.8611 17.4753 75.8611 6.95158 75.8611 6.639H79.2996V3.92993H79.4037Z" stroke="#EF7F1A" stroke-width="2.18809" stroke-miterlimit="22.9256" stroke-linecap="round" stroke-linejoin="round"/>
<path fill-rule="evenodd" clip-rule="evenodd" d="M20.3253 3.92993C20.4295 3.92993 20.4295 3.92993 20.5336 3.92993V6.639H23.5553C23.5553 6.95158 23.5553 17.892 23.5553 21.2263C22.6175 21.7473 21.4714 22.0598 20.3253 22.0598C16.3659 22.0598 13.24 18.8298 13.24 14.9746V11.0152C13.24 7.15997 16.3659 3.92993 20.3253 3.92993V3.92993Z" stroke="#EF7F1A" stroke-width="2.18809" stroke-miterlimit="22.9256" stroke-linecap="round" stroke-linejoin="round"/>
<path fill-rule="evenodd" clip-rule="evenodd" d="M75.8611 6.63904C75.8611 6.95162 75.8611 22.0599 75.8611 22.2683C75.8611 32.4794 67.5255 40.815 57.3144 40.815H42.102C31.8909 40.815 23.5553 32.4794 23.5553 22.2683C23.5553 22.0599 23.5553 6.95162 23.5553 6.63904H43.0397L42.5188 7.78518L39.0803 7.68099L38.5594 11.1194L35.2251 12.1614L35.9545 15.704L33.2454 17.7879L35.1209 20.8095L33.2454 23.6228L35.9545 25.9151L35.2251 29.2493L38.6636 30.3955L39.0803 33.7297H42.623L44.1859 36.7514L47.5201 35.3968L50.0208 37.7933L52.7299 35.3968L55.8557 36.7514L57.5228 33.6255L60.9613 33.7297L61.4822 30.2913L64.8165 29.2493L64.0871 25.7067L66.7962 23.6228L64.9207 20.6011L66.7962 17.7879L64.0871 15.4956L64.8165 12.1614L61.378 11.0152L60.9613 7.68099H57.4186L56.8977 6.63904H75.8611V6.63904Z" stroke="#EF7F1A" stroke-width="2.18809" stroke-miterlimit="22.9256" stroke-linecap="round" stroke-linejoin="round"/>
<path fill-rule="evenodd" clip-rule="evenodd" d="M20.5336 2.05444H79.2996V6.63902H56.8977L55.8557 4.65931L52.5215 6.01385L50.0208 3.61737L47.3117 6.01385L44.1859 4.65931L43.0397 6.63902H20.5336V2.05444Z" stroke="#EF7F1A" stroke-width="2.18809" stroke-miterlimit="22.9256" stroke-linecap="round" stroke-linejoin="round"/>
<path fill-rule="evenodd" clip-rule="evenodd" d="M50.0208 3.61737L52.5215 6.01385L55.8557 4.65932L57.4186 7.68097H60.9612L61.378 11.0152L64.8165 12.1613L64.0871 15.4956L66.7962 17.7879L64.9207 20.6011L66.7962 23.6228L64.0871 25.7067L64.8165 29.2493L61.4822 30.2913L60.9612 33.7297L57.5228 33.6255L55.8557 36.7513L52.7299 35.3968L50.0208 37.7933L47.5201 35.3968L44.1859 36.7513L42.623 33.7297H39.0803L38.6636 30.3954L35.2251 29.2493L35.9545 25.9151L33.2454 23.6228L35.1209 20.8095L33.2454 17.7879L35.9545 15.704L35.2251 12.1613L38.5594 11.1194L39.0803 7.68097L42.5188 7.78516L44.1859 4.65932L47.3117 6.01385L50.0208 3.61737Z" stroke="#EF7F1A" stroke-width="2.18809" stroke-miterlimit="22.9256" stroke-linecap="round" stroke-linejoin="round"/>
<path fill-rule="evenodd" clip-rule="evenodd" d="M50.0208 8.41034L51.7921 10.0775L54.1886 9.1397L55.3347 11.3278H57.9396L58.2522 13.7243L60.6487 14.5578L60.1277 16.9543L62.1074 18.6214L60.7529 20.7053L62.1074 22.8934L60.1277 24.3522L60.6487 26.8528L58.3564 27.5822L57.9396 30.0829L55.4389 29.9787L54.1886 32.271L51.8963 31.3332L50.0208 33.0003L48.2495 31.3332L45.853 32.271L44.7069 30.0829H42.102L41.7894 27.6864L39.3929 26.8528L39.9139 24.4563L37.9342 22.8934L39.2887 20.8095L37.9342 18.6214L39.9139 17.0585L39.3929 14.5578L41.6852 13.8285L42.102 11.3278L44.6027 11.432L45.853 9.1397L48.1453 10.0775L50.0208 8.41034Z" stroke="#EF7F1A" stroke-width="1.04195" stroke-miterlimit="22.9256" stroke-linecap="round" stroke-linejoin="round"/>
<path fill-rule="evenodd" clip-rule="evenodd" d="M47.5201 15.7039V12.8907H53.355V15.7039H51.8963V25.7067H53.355V28.5199H47.5201V25.7067H48.9788V15.7039H47.5201Z" stroke="#EF7F1A" stroke-width="1.04195" stroke-miterlimit="22.9256" stroke-linecap="round" stroke-linejoin="round"/>
<path fill-rule="evenodd" clip-rule="evenodd" d="M39.9139 64.5714L40.9558 65.9259L42.623 66.5511L41.6852 67.9056L41.581 69.7811L40.0181 69.2601L38.2468 69.7811V68.114L37.2048 66.5511L38.7677 66.0301L39.9139 64.5714Z" stroke="#EF7F1A" stroke-width="1.04195" stroke-miterlimit="22.9256" stroke-linecap="round" stroke-linejoin="round"/>
<path fill-rule="evenodd" clip-rule="evenodd" d="M50.5418 64.5714L51.5837 65.9259L53.2508 66.5511L52.3131 67.9056L52.2089 69.7811L50.646 69.2601L48.8747 69.7811V68.114L47.8327 66.5511L49.3956 66.0301L50.5418 64.5714Z" stroke="#EF7F1A" stroke-width="1.04195" stroke-miterlimit="22.9256" stroke-linecap="round" stroke-linejoin="round"/>
<path fill-rule="evenodd" clip-rule="evenodd" d="M61.4822 64.5714L62.42 65.9259L64.1913 66.5511L63.2535 67.9056L63.1493 69.7811L61.4822 69.2601L59.8151 69.7811L59.7109 68.114L58.7732 66.5511L60.3361 66.0301L61.4822 64.5714Z" stroke="#EF7F1A" stroke-width="1.04195" stroke-miterlimit="22.9256" stroke-linecap="round" stroke-linejoin="round"/>
<path d="M55.2305 40.8149H44.7069C42.9805 40.8149 41.581 41.608 41.581 42.5863C41.581 43.5645 42.9805 44.3576 44.7069 44.3576H55.2305C56.9569 44.3576 58.3564 43.5645 58.3564 42.5863C58.3564 41.608 56.9569 40.8149 55.2305 40.8149Z" stroke="#EF7F1A" stroke-width="2.18809" stroke-miterlimit="22.9256" stroke-linecap="round" stroke-linejoin="round"/>
<path d="M55.6473 44.3575H44.1859V50.1925H55.6473V44.3575Z" stroke="#EF7F1A" stroke-width="2.18809" stroke-miterlimit="22.9256" stroke-linecap="round" stroke-linejoin="round"/>
<path fill-rule="evenodd" clip-rule="evenodd" d="M68.4633 57.2777C67.3171 53.2141 61.1696 50.1924 53.7718 50.1924H45.9572C38.5594 50.1924 32.4119 53.2141 31.2657 57.2777H68.4633V57.2777Z" stroke="#EF7F1A" stroke-width="2.18809" stroke-miterlimit="22.9256" stroke-linecap="round" stroke-linejoin="round"/>
<path d="M77.7366 57.2777H22.0966V76.8663H77.7366V57.2777Z" stroke="#EF7F1A" stroke-width="2.18809" stroke-miterlimit="22.9256" stroke-linecap="round" stroke-linejoin="round"/>
<path d="M67.7339 61.0287H32.2035V73.0112H67.7339V61.0287Z" stroke="#EF7F1A" stroke-width="1.04195" stroke-miterlimit="22.9256" stroke-linecap="round" stroke-linejoin="round"/>
<path fill-rule="evenodd" clip-rule="evenodd" d="M83.5715 53.9435C83.7799 52.5889 83.8841 50.1925 84.8219 48.8379C85.6554 47.4834 87.1142 47.0666 89.6148 46.754C92.1155 46.3372 95.5539 46.1289 97.1169 46.0247C98.6798 46.0247 98.3672 46.233 97.4295 47.6918C96.5959 49.0463 95.1372 51.6512 93.991 53.4225C92.8449 55.1938 92.0113 56.2358 90.1358 56.5483C88.2603 56.8609 85.3429 56.4441 84.0925 56.1316C82.8422 55.7148 83.259 55.298 83.5715 53.9435V53.9435Z" stroke="#EF7F1A" stroke-width="1.04195" stroke-miterlimit="22.9256"/>
<path fill-rule="evenodd" clip-rule="evenodd" d="M87.5309 41.9611C87.5309 40.6065 87.3225 38.5226 87.8435 37.1681C88.2603 35.9178 89.6148 35.2926 91.8029 34.5632C93.8868 33.8339 96.9085 33.0003 98.263 32.7919C99.6175 32.4793 99.305 32.6877 98.784 34.1464C98.263 35.501 97.4295 38.0017 96.7001 39.773C95.9707 41.5443 95.4497 42.5862 93.7826 43.1072C92.2197 43.7324 89.5106 43.8366 88.3645 43.7324C87.2184 43.6282 87.5309 43.2114 87.5309 41.9611V41.9611Z" stroke="#EF7F1A" stroke-width="1.04195" stroke-miterlimit="22.9256"/>
<path fill-rule="evenodd" clip-rule="evenodd" d="M84.9261 32.7919C84.6135 31.8542 83.7799 30.3954 83.6757 29.3535C83.6757 28.2073 84.4051 27.3738 85.7596 26.2276C87.01 25.0815 88.8855 23.5186 89.8232 22.8934C90.6568 22.2682 90.5526 22.5808 90.5526 23.727C90.5526 24.8731 90.761 26.957 90.761 28.4157C90.8652 29.8745 90.761 30.8122 89.8232 31.6458C88.7813 32.5835 87.01 33.5213 86.0722 33.8339C85.2387 34.0422 85.3429 33.6255 84.9261 32.7919V32.7919Z" stroke="#EF7F1A" stroke-width="1.04195" stroke-miterlimit="22.9256"/>
<path fill-rule="evenodd" clip-rule="evenodd" d="M16.47 53.9435C16.1575 52.5889 16.0533 50.1925 15.2197 48.8379C14.3861 47.4834 12.8232 47.0666 10.3225 46.754C7.82187 46.3372 4.38344 46.1289 2.82052 46.0247C1.36179 46.0247 1.67438 46.233 2.50793 47.6918C3.44569 49.0463 4.90442 51.6512 6.05056 53.4225C7.09251 55.1938 7.92607 56.2358 9.90577 56.5483C11.7813 56.8609 14.6987 56.4441 15.9491 56.1316C17.1994 55.7148 16.7826 55.298 16.47 53.9435V53.9435Z" stroke="#EF7F1A" stroke-width="1.04195" stroke-miterlimit="22.9256"/>
<path fill-rule="evenodd" clip-rule="evenodd" d="M12.5106 41.9611C12.4064 40.6065 12.719 38.5226 12.1981 37.1681C11.6771 35.9178 10.4267 35.2926 8.23865 34.5632C6.05056 33.8339 3.1331 33.0003 1.77857 32.7919C0.424039 32.4793 0.632428 32.6877 1.2576 34.1464C1.77857 35.501 2.61213 38.0017 3.34149 39.773C4.07086 41.5443 4.59183 42.5862 6.15476 43.1072C7.82187 43.7324 10.5309 43.8366 11.6771 43.7324C12.8232 43.6282 12.5106 43.2114 12.5106 41.9611V41.9611Z" stroke="#EF7F1A" stroke-width="1.04195" stroke-miterlimit="22.9256"/>
<path fill-rule="evenodd" clip-rule="evenodd" d="M15.0113 32.7919C15.4281 31.8542 16.2617 30.3954 16.2617 29.3535C16.3659 28.2073 15.6365 27.3738 14.282 26.2276C13.0316 25.0815 11.1561 23.5186 10.2184 22.8934C9.3848 22.2682 9.48899 22.5808 9.3848 23.727C9.3848 24.8731 9.2806 26.957 9.17641 28.4157C9.17641 29.8745 9.2806 30.8122 10.2184 31.6458C11.1561 32.5835 13.0316 33.5213 13.8652 33.8339C14.8029 34.0422 14.6987 33.6255 15.0113 32.7919V32.7919Z" stroke="#EF7F1A" stroke-width="1.04195" stroke-miterlimit="22.9256"/>
</svg>
