<svg width="101" height="95" viewBox="0 0 101 95" fill="none" xmlns="http://www.w3.org/2000/svg">
<path d="M93.1636 79.9574H7.41881C4.14994 79.9574 1.5 83.0083 1.5 86.7718C1.5 90.5353 4.14994 93.5862 7.41881 93.5862H93.1636C96.4325 93.5862 99.0824 90.5353 99.0824 86.7718C99.0824 83.0083 96.4325 79.9574 93.1636 79.9574Z" stroke="#EF7F1A" stroke-width="2.33637" stroke-miterlimit="22.9256" stroke-linecap="round" stroke-linejoin="round"/>
<path d="M8.97639 90.2375C10.8259 90.2375 12.3252 88.7381 12.3252 86.8887C12.3252 85.0392 10.8259 83.5399 8.97639 83.5399C7.1269 83.5399 5.62759 85.0392 5.62759 86.8887C5.62759 88.7381 7.1269 90.2375 8.97639 90.2375Z" stroke="#EF7F1A" stroke-width="1.16819" stroke-miterlimit="22.9256" stroke-linecap="round" stroke-linejoin="round"/>
<path d="M22.4495 90.2375C24.2989 90.2375 25.7983 88.7381 25.7983 86.8887C25.7983 85.0392 24.2989 83.5399 22.4495 83.5399C20.6 83.5399 19.1007 85.0392 19.1007 86.8887C19.1007 88.7381 20.6 90.2375 22.4495 90.2375Z" stroke="#EF7F1A" stroke-width="1.16819" stroke-miterlimit="22.9256" stroke-linecap="round" stroke-linejoin="round"/>
<path d="M36.5456 90.2375C38.3951 90.2375 39.8944 88.7381 39.8944 86.8887C39.8944 85.0392 38.3951 83.5399 36.5456 83.5399C34.6961 83.5399 33.1968 85.0392 33.1968 86.8887C33.1968 88.7381 34.6961 90.2375 36.5456 90.2375Z" stroke="#EF7F1A" stroke-width="1.16819" stroke-miterlimit="22.9256" stroke-linecap="round" stroke-linejoin="round"/>
<path d="M50.1744 90.2375C52.0239 90.2375 53.5232 88.7381 53.5232 86.8887C53.5232 85.0392 52.0239 83.5399 50.1744 83.5399C48.3249 83.5399 46.8256 85.0392 46.8256 86.8887C46.8256 88.7381 48.3249 90.2375 50.1744 90.2375Z" stroke="#EF7F1A" stroke-width="1.16819" stroke-miterlimit="22.9256" stroke-linecap="round" stroke-linejoin="round"/>
<path d="M63.8032 90.2375C65.6527 90.2375 67.152 88.7381 67.152 86.8887C67.152 85.0392 65.6527 83.5399 63.8032 83.5399C61.9537 83.5399 60.4544 85.0392 60.4544 86.8887C60.4544 88.7381 61.9537 90.2375 63.8032 90.2375Z" stroke="#EF7F1A" stroke-width="1.16819" stroke-miterlimit="22.9256" stroke-linecap="round" stroke-linejoin="round"/>
<path d="M77.7436 90.2375C79.5931 90.2375 81.0924 88.7381 81.0924 86.8887C81.0924 85.0392 79.5931 83.5399 77.7436 83.5399C75.8941 83.5399 74.3948 85.0392 74.3948 86.8887C74.3948 88.7381 75.8941 90.2375 77.7436 90.2375Z" stroke="#EF7F1A" stroke-width="1.16819" stroke-miterlimit="22.9256" stroke-linecap="round" stroke-linejoin="round"/>
<path d="M91.8397 90.2375C93.6892 90.2375 95.1885 88.7381 95.1885 86.8887C95.1885 85.0392 93.6892 83.5399 91.8397 83.5399C89.9902 83.5399 88.4909 85.0392 88.4909 86.8887C88.4909 88.7381 89.9902 90.2375 91.8397 90.2375Z" stroke="#EF7F1A" stroke-width="1.16819" stroke-miterlimit="22.9256" stroke-linecap="round" stroke-linejoin="round"/>
<path d="M93.0858 44.2888H46.0468V79.9574H93.0858V44.2888Z" stroke="#EF7F1A" stroke-width="2.33637" stroke-miterlimit="22.9256" stroke-linecap="round" stroke-linejoin="round"/>
<path d="M69.5663 44.2888V79.9574" stroke="#EF7F1A" stroke-width="2.33637" stroke-miterlimit="22.9256" stroke-linecap="round" stroke-linejoin="round"/>
<path d="M66.2954 47.6376H49.162V66.5622H66.2954V47.6376Z" stroke="#EF7F1A" stroke-width="1.16819" stroke-miterlimit="22.9256" stroke-linecap="round" stroke-linejoin="round"/>
<path d="M89.9706 47.6376H72.8372V59.0079H89.9706V47.6376Z" stroke="#EF7F1A" stroke-width="1.16819" stroke-miterlimit="22.9256" stroke-linecap="round" stroke-linejoin="round"/>
<path d="M89.9706 60.7991H72.8372V66.4843H89.9706V60.7991Z" stroke="#EF7F1A" stroke-width="1.16819" stroke-miterlimit="22.9256" stroke-linecap="round" stroke-linejoin="round"/>
<path d="M80.6251 68.9764H72.8372V74.6616H80.6251V68.9764Z" stroke="#EF7F1A" stroke-width="1.16819" stroke-miterlimit="22.9256" stroke-linecap="round" stroke-linejoin="round"/>
<path d="M90.0485 68.9764H82.65V74.6616H90.0485V68.9764Z" stroke="#EF7F1A" stroke-width="1.16819" stroke-miterlimit="22.9256" stroke-linecap="round" stroke-linejoin="round"/>
<path d="M16.92 56.3601C18.3394 56.3601 19.4901 55.2094 19.4901 53.79C19.4901 52.3707 18.3394 51.22 16.92 51.22C15.5007 51.22 14.35 52.3707 14.35 53.79C14.35 55.2094 15.5007 56.3601 16.92 56.3601Z" stroke="#EF7F1A" stroke-width="2.33637" stroke-miterlimit="22.9256" stroke-linecap="round" stroke-linejoin="round"/>
<path fill-rule="evenodd" clip-rule="evenodd" d="M19.7237 28.1678V46.2358C19.0228 46.1579 18.3219 46.08 17.5431 46.08H16.5306C15.7519 46.08 15.0509 46.1579 14.35 46.2358V28.4015C15.0509 28.6351 15.9076 28.7909 16.7643 28.7909C17.8546 28.7909 18.867 28.5572 19.7237 28.1678V28.1678Z" stroke="#EF7F1A" stroke-width="2.33637" stroke-miterlimit="22.9256" stroke-linecap="round" stroke-linejoin="round"/>
<path d="M16.7643 23.9624C18.0976 23.9624 19.1785 22.8815 19.1785 21.5481C19.1785 20.2147 18.0976 19.1339 16.7643 19.1339C15.4309 19.1339 14.35 20.2147 14.35 21.5481C14.35 22.8815 15.4309 23.9624 16.7643 23.9624Z" stroke="#EF7F1A" stroke-width="2.33637" stroke-miterlimit="22.9256" stroke-linecap="round" stroke-linejoin="round"/>
<path fill-rule="evenodd" clip-rule="evenodd" d="M43.7104 7.45202L23.6955 19.6012C23.2283 17.8099 21.9822 16.2524 20.4246 15.3178L42.1529 2.00049H69.722V7.45202H43.7104V7.45202Z" stroke="#EF7F1A" stroke-width="2.33637" stroke-miterlimit="22.9256" stroke-linecap="round" stroke-linejoin="round"/>
<path fill-rule="evenodd" clip-rule="evenodd" d="M16.5307 46.08H17.5431C22.4495 46.08 26.4213 48.5721 26.4213 51.6094V79.9574H7.65245V51.6094C7.65245 48.5721 11.6243 46.08 16.5307 46.08V46.08Z" stroke="#EF7F1A" stroke-width="2.33637" stroke-miterlimit="22.9256" stroke-linecap="round" stroke-linejoin="round"/>
<path d="M16.7643 28.7909C20.7644 28.7909 24.007 25.5482 24.007 21.5481C24.007 17.548 20.7644 14.3054 16.7643 14.3054C12.7642 14.3054 9.52155 17.548 9.52155 21.5481C9.52155 25.5482 12.7642 28.7909 16.7643 28.7909Z" stroke="#EF7F1A" stroke-width="2.33637" stroke-miterlimit="22.9256" stroke-linecap="round" stroke-linejoin="round"/>
<path d="M67.3857 7.45203H63.8032V14.1496H67.3857V7.45203Z" stroke="#EF7F1A" stroke-width="1.16819" stroke-miterlimit="22.9256" stroke-linecap="round" stroke-linejoin="round"/>
<path d="M75.563 14.1496H55.548V22.3269H75.563V14.1496Z" stroke="#EF7F1A" stroke-width="1.16819" stroke-miterlimit="22.9256" stroke-linecap="round" stroke-linejoin="round"/>
<path d="M60.065 22.4048H57.5729V27.3112H60.065V22.4048Z" stroke="#EF7F1A" stroke-width="1.16819" stroke-miterlimit="22.9256" stroke-linecap="round" stroke-linejoin="round"/>
<path d="M73.4602 22.4048H70.9681V27.3112H73.4602V22.4048Z" stroke="#EF7F1A" stroke-width="1.16819" stroke-miterlimit="22.9256" stroke-linecap="round" stroke-linejoin="round"/>
</svg>
