<svg width="101" height="81" viewBox="0 0 101 81" fill="none" xmlns="http://www.w3.org/2000/svg">
<path fill-rule="evenodd" clip-rule="evenodd" d="M41.7461 16.8026H35.8638V31.5084C43.4841 31.5084 49.6338 37.6582 49.6338 45.2785C49.6338 52.8988 43.4841 59.0485 35.8638 59.0485V73.7544H41.7461V67.3373C43.7515 66.8026 45.6231 66.0004 47.3611 64.9309L51.9065 69.61L60.1953 61.3213L55.6498 56.6421C56.5857 54.9042 57.3878 53.0325 57.9226 51.1608H64.4734V39.3961H57.9226C57.3878 37.3908 56.5857 35.5191 55.6498 33.9149L60.1953 29.2357L51.9065 20.9469L47.3611 25.4924C45.6231 24.5566 43.7515 23.7544 41.7461 23.2197V16.8026V16.8026Z" stroke="#EF7F1A" stroke-width="2.13904" stroke-miterlimit="22.9256" stroke-linecap="round" stroke-linejoin="round"/>
<path d="M35.1953 52.3641C39.0347 52.3641 42.1472 49.2516 42.1472 45.4122C42.1472 41.5728 39.0347 38.4603 35.1953 38.4603C31.3559 38.4603 28.2434 41.5728 28.2434 45.4122C28.2434 49.2516 31.3559 52.3641 35.1953 52.3641Z" stroke="#EF7F1A" stroke-width="1.06952" stroke-miterlimit="22.9256" stroke-linecap="round" stroke-linejoin="round"/>
<path d="M30.5162 40.332H24.099V31.1074" stroke="#EF7F1A" stroke-width="1.06952" stroke-miterlimit="22.9256" stroke-linecap="round" stroke-linejoin="round"/>
<path d="M28.2434 45.4122H15.5429" stroke="#EF7F1A" stroke-width="1.06952" stroke-miterlimit="22.9256" stroke-linecap="round" stroke-linejoin="round"/>
<path d="M30.5162 50.4924H24.099V60.118" stroke="#EF7F1A" stroke-width="1.06952" stroke-miterlimit="22.9256" stroke-linecap="round" stroke-linejoin="round"/>
<path d="M23.9654 67.8721C26.1066 67.8721 27.8424 66.1363 27.8424 63.9951C27.8424 61.8538 26.1066 60.118 23.9654 60.118C21.8241 60.118 20.0883 61.8538 20.0883 63.9951C20.0883 66.1363 21.8241 67.8721 23.9654 67.8721Z" stroke="#EF7F1A" stroke-width="1.06952" stroke-miterlimit="22.9256" stroke-linecap="round" stroke-linejoin="round"/>
<path d="M23.9654 31.1073C26.1066 31.1073 27.8424 29.3715 27.8424 27.2303C27.8424 25.0891 26.1066 23.3533 23.9654 23.3533C21.8241 23.3533 20.0883 25.0891 20.0883 27.2303C20.0883 29.3715 21.8241 31.1073 23.9654 31.1073Z" stroke="#EF7F1A" stroke-width="1.06952" stroke-miterlimit="22.9256" stroke-linecap="round" stroke-linejoin="round"/>
<path d="M11.7996 48.8881C13.9408 48.8881 15.6766 47.1523 15.6766 45.0111C15.6766 42.8699 13.9408 41.1341 11.7996 41.1341C9.65837 41.1341 7.92258 42.8699 7.92258 45.0111C7.92258 47.1523 9.65837 48.8881 11.7996 48.8881Z" stroke="#EF7F1A" stroke-width="1.06952" stroke-miterlimit="22.9256" stroke-linecap="round" stroke-linejoin="round"/>
<path d="M72.6285 11.7224H1.63916V78.9683H72.6285V11.7224Z" stroke="#EF7F1A" stroke-width="2.13904" stroke-miterlimit="22.9256" stroke-linecap="round" stroke-linejoin="round"/>
<path d="M99.3664 28.7009H72.6285V70.4122H99.3664V28.7009Z" stroke="#EF7F1A" stroke-width="2.13904" stroke-miterlimit="22.9256" stroke-linecap="round" stroke-linejoin="round"/>
<path fill-rule="evenodd" clip-rule="evenodd" d="M8.9921 1.42822H66.4787L72.6285 11.7223H1.63916L8.9921 1.42822Z" stroke="#EF7F1A" stroke-width="2.13904" stroke-miterlimit="22.9256" stroke-linecap="round" stroke-linejoin="round"/>
<path fill-rule="evenodd" clip-rule="evenodd" d="M72.6285 21.0806H94.6873L99.5001 28.7009H72.6285V21.0806Z" stroke="#EF7F1A" stroke-width="2.13904" stroke-miterlimit="22.9256" stroke-linecap="round" stroke-linejoin="round"/>
<path d="M95.0884 35.9202H72.6285V42.3373H95.0884V35.9202Z" stroke="#EF7F1A" stroke-width="1.06952" stroke-miterlimit="22.9256" stroke-linecap="round" stroke-linejoin="round"/>
<path d="M95.0884 47.2838H72.6285V53.7009H95.0884V47.2838Z" stroke="#EF7F1A" stroke-width="1.06952" stroke-miterlimit="22.9256" stroke-linecap="round" stroke-linejoin="round"/>
<path d="M95.0884 58.6475H72.6285V65.0646H95.0884V58.6475Z" stroke="#EF7F1A" stroke-width="1.06952" stroke-miterlimit="22.9256" stroke-linecap="round" stroke-linejoin="round"/>
</svg>
